<svg version="1.1" xmlns="http://www.w3.org/2000/svg" xmlns:xlink="http://www.w3.org/1999/xlink">

    <symbol viewBox="0 0 222 24" id="landwash-techs-list-header-logo">
        <path d="M91.0878 18.9287H84.3199C83.9341 18.9287 83.5522 18.8529 83.1959 18.7058C82.8395 18.5587 82.5159 18.343 82.2435 18.0712C81.9711 17.7994 81.7553 17.4768 81.6085 17.1219C81.4616 16.767 81.3866 16.3867 81.3877 16.0029V0.135955H71.7984V16.0029C71.7473 21.2778 75.1653 23.8304 79.4699 23.8813H100.66V0.135955H91.0878V18.9287ZM62.7547 13.3401C68.6361 10.7959 67.7837 0.339486 58.5439 0.135955H37.4816V23.8813H47.0794V15.6213H52.313C53.0389 15.5727 53.7613 15.7564 54.3747 16.1454C54.9882 16.5345 55.4605 17.1086 55.7225 17.7838L58.5354 23.8813H68.4912C65.5079 17.0375 65.363 15.1973 62.7547 13.3401ZM53.3103 10.55H47.1817V5.08855H53.3103C57.683 5.29208 57.683 10.5245 53.3103 10.55ZM22.3007 18.9287H17.7063C7.33284 18.8778 7.33284 5.29208 17.962 5.08855H29.3158V0.00027067H12.9841C-4.47264 -0.0930145 -4.18283 23.9576 12.9841 24H31.7365V10.6772H22.3007V18.9287ZM176.582 23.7625H186.248V0.135955H176.641L176.582 23.7625ZM211.93 10.6772V18.9287H207.591C197.192 18.8778 197.192 5.29208 207.847 5.08855H219.09V0.00027067H202.758C185.267 -0.0930145 185.549 23.9576 202.758 23.8728H221.647V10.6772H211.93ZM159.236 0.135955H140.841V23.8813H159.091C177.153 23.8304 177.016 0.619342 159.236 0.135955ZM154.641 18.9287H150.431V5.08855H154.641C164.921 5.29208 164.921 18.8778 154.641 18.9287ZM127.459 0.00875295H106.277V23.8813H115.977V5.08855H122.737C123.124 5.08046 123.509 5.15039 123.868 5.29413C124.228 5.43788 124.554 5.65246 124.828 5.92498C125.102 6.19751 125.318 6.52234 125.462 6.87994C125.607 7.23754 125.677 7.62051 125.669 8.00584V23.8813H135.241V7.87863C135.199 2.45961 131.925 0.0511553 127.459 0.00875295Z" />
    </symbol>

    <symbol viewBox="0 0 141 50" id="landwash-techs-list-header-timer">
        <path d="M25.488 47.112L20.304 42.168V30.36L25.488 25.656V47.112ZM25.344 2.52V23.976L20.16 19.32V7.464L25.344 2.52ZM40.8866 49.224L45.8306 44.04H57.6866L62.3426 49.224H40.8866ZM39.4466 25.656L44.6306 30.648V42.408L39.4466 47.112V25.656ZM45.0146 27.384C43.8946 26.488 42.7586 25.608 41.6066 24.744L45.0146 22.2H58.1186L61.4786 24.744L58.1186 27.384H45.0146ZM40.8386 0.455998H62.2946L57.5426 5.64H45.7826L40.8386 0.455998ZM63.7346 2.52V23.976L58.5506 19.32V7.464L63.7346 2.52ZM79.2773 49.224L84.2213 44.04H96.0773L100.733 49.224H79.2773ZM77.8372 25.656L83.0213 30.648V42.408L77.8372 47.112V25.656ZM102.269 47.112L97.0853 42.168V30.36L102.269 25.656V47.112ZM79.2293 0.455998H100.685L95.9333 5.64H84.1733L79.2293 0.455998ZM77.6933 23.976V2.52L82.8773 7.176V19.08L77.6933 23.976ZM102.125 2.52V23.976L96.9413 19.32V7.464L102.125 2.52ZM117.668 49.224L122.612 44.04H134.468L139.124 49.224H117.668ZM116.228 25.656L121.412 30.648V42.408L116.228 47.112V25.656ZM140.66 47.112L135.476 42.168V30.36L140.66 25.656V47.112ZM117.62 0.455998H139.076L134.324 5.64H122.564L117.62 0.455998ZM116.084 23.976V2.52L121.268 7.176V19.08L116.084 23.976ZM140.516 2.52V23.976L135.332 19.32V7.464L140.516 2.52Z" />
    </symbol>

    <symbol viewBox="0 0 120 120" id="landwash-techs-list-header-playpause">
        <path d="M25 81V39L55 60L25 81ZM65 80V40H75V80H65ZM85 80V40H95V80H85Z" />
    </symbol>

    <symbol viewBox="0 0 80 80" id="landwash-techs-list-header-power">
        <path d="M37.4993 43.3332V11.4102H42.4992V43.3332H37.4993ZM39.9993 68.3331C36.1018 68.3331 32.4352 67.5895 28.9993 66.1022C25.5635 64.6151 22.5592 62.5852 19.9865 60.0126C17.4139 57.4399 15.384 54.4356 13.8968 50.9997C12.4096 47.5639 11.666 43.8973 11.666 39.9998C11.666 35.7904 12.5507 31.815 14.3199 28.0736C16.0892 24.3321 18.5549 21.1024 21.7173 18.3845L25.3326 21.9998C22.5548 24.1109 20.4159 26.7498 18.9159 29.9165C17.4159 33.0832 16.6659 36.4443 16.6659 39.9998C16.6659 46.4443 18.9437 51.9443 23.4993 56.4998C28.0548 61.0554 33.5548 63.3332 39.9993 63.3332C46.4993 63.3332 52.0132 61.0554 56.5409 56.4998C61.0687 51.9443 63.3326 46.4443 63.3326 39.9998C63.3326 36.4443 62.5965 33.0832 61.1243 29.9165C59.652 26.7498 57.4993 24.1109 54.6659 21.9998L58.2813 18.3845C61.465 21.1024 63.9361 24.3321 65.6947 28.0736C67.4532 31.815 68.3325 35.7904 68.3325 39.9998C68.3325 43.8973 67.5889 47.5639 66.1017 50.9997C64.6145 54.4356 62.5932 57.4399 60.0377 60.0126C57.4821 62.5852 54.4864 64.6151 51.0505 66.1022C47.6146 67.5895 43.9309 68.3331 39.9993 68.3331Z" />
    </symbol>

    <symbol viewBox="0 0 24 24" id="landwash-config-filter-link">
        <path d="M13.25 8.74995V7.25H16.25V3.25H17.75V7.25H20.75V8.74995H13.25ZM16.25 20.75V11.25H17.75V20.75H16.25ZM6.25 20.75V16.75H3.25V15.25H10.75V16.75H7.74995V20.75H6.25ZM6.25 12.75V3.25H7.74995V12.75H6.25Z" />
    </symbol>

    <symbol viewBox="0 0 48 48" id="landwash-products-prev">
        <path d="M19.9982 42.6136L1.38281 23.9982L19.9982 5.38281L22.1252 7.50976L5.63666 23.9982L22.1252 40.4867L19.9982 42.6136Z" />
    </symbol>

    <symbol viewBox="0 0 48 48" id="landwash-products-next">
        <path d="M28.0018 5.38248L46.6172 23.9979L28.0018 42.6133L25.8748 40.4863L42.3633 23.9979L25.8748 7.50943L28.0018 5.38248Z" />
    </symbol>

    <symbol viewBox="0 0 24 25" id="landwash-filter-close">
        <path fill-rule="evenodd" clip-rule="evenodd" d="M4.15706 3.5L3 4.65706L10.9072 12.5643L3.00095 20.4706L4.158 21.6276L12.0643 13.7213L19.9706 21.6276L21.1276 20.4706L13.2213 12.5643L21.1286 4.65706L19.9715 3.5L12.0643 11.4072L4.15706 3.5Z" />
    </symbol>

</svg>