<svg width="294" height="370" viewBox="0 0 294 370" fill="none" xmlns="http://www.w3.org/2000/svg">
<path d="M270.647 0H23.9599C17.7517 0.0161464 11.8022 2.48951 7.41227 6.87944C3.02234 11.2694 0.54935 17.2187 0.533203 23.4269V346.573C0.533203 352.786 3.00093 358.745 7.39435 363.138C11.7878 367.532 17.7467 370 23.9599 370H270.035C273.114 370.008 276.164 369.408 279.01 368.233C281.856 367.059 284.442 365.333 286.619 363.156C288.796 360.979 290.521 358.394 291.695 355.548C292.87 352.702 293.47 349.652 293.462 346.573V23.4269C293.527 20.3841 292.986 17.3586 291.87 14.527C290.754 11.6954 289.086 9.11435 286.962 6.93394C284.839 4.75354 282.303 3.01755 279.501 1.8271C276.7 0.636651 273.69 0.0155389 270.647 0ZM278.66 23.4269V61.6564H85.8611V15.4141H270.83C272.914 15.4922 274.887 16.3671 276.344 17.8581C277.801 19.3491 278.63 21.3425 278.66 23.4269ZM23.9599 15.4141H70.2631V61.6564H15.9467V23.4269C16.102 21.3533 16.9963 19.4043 18.4667 17.9339C19.9371 16.4635 21.8863 15.5693 23.9599 15.4141ZM270.647 354.586H23.9599C21.8446 354.554 19.8245 353.7 18.3286 352.204C16.8326 350.708 15.9783 348.688 15.9467 346.573V77.0704H278.048V346.573C278.153 347.599 278.038 348.636 277.711 349.614C277.384 350.592 276.853 351.49 276.153 352.247C275.454 353.005 274.601 353.605 273.651 354.009C272.702 354.412 271.678 354.609 270.647 354.586Z" fill="#D5D5D0"/>
<path d="M147.337 54.254C150.385 54.254 153.365 53.3499 155.9 51.6562C158.435 49.9624 160.41 47.5552 161.577 44.7386C162.744 41.9221 163.049 38.8228 162.454 35.8328C161.86 32.8427 160.391 30.0962 158.236 27.9405C156.08 25.7848 153.333 24.3167 150.343 23.722C147.353 23.1272 144.254 23.4325 141.438 24.5991C138.621 25.7658 136.214 27.7414 134.52 30.2762C132.826 32.8111 131.922 35.7912 131.922 38.8398C131.906 40.8685 132.294 42.8804 133.063 44.7579C133.831 46.6354 134.966 48.3411 136.401 49.7757C137.835 51.2103 139.541 52.345 141.419 53.1138C143.296 53.8827 145.308 54.2703 147.337 54.254Z" fill="#D5D5D0"/>
<path d="M193.571 54.254C196.62 54.254 199.6 53.3499 202.135 51.6562C204.669 49.9624 206.646 47.5552 207.812 44.7386C208.979 41.9221 209.284 38.8228 208.689 35.8328C208.094 32.8427 206.627 30.0962 204.471 27.9405C202.315 25.7848 199.569 24.3167 196.579 23.722C193.589 23.1272 190.489 23.4325 187.672 24.5991C184.856 25.7658 182.448 27.7414 180.754 30.2762C179.061 32.8111 178.157 35.7912 178.157 38.8398C178.14 40.8685 178.528 42.8804 179.297 44.7579C180.066 46.6354 181.201 48.3411 182.635 49.7757C184.07 51.2103 185.775 52.345 187.653 53.1138C189.53 53.8827 191.542 54.2703 193.571 54.254Z" fill="#D5D5D0"/>
<path d="M239.817 54.254C242.866 54.254 245.846 53.3499 248.381 51.6562C250.915 49.9624 252.891 47.5552 254.058 44.7386C255.224 41.9221 255.53 38.8228 254.935 35.8328C254.34 32.8427 252.872 30.0962 250.716 27.9405C248.56 25.7848 245.814 24.3167 242.824 23.722C239.834 23.1272 236.735 23.4325 233.918 24.5991C231.102 25.7658 228.694 27.7414 227 30.2762C225.307 32.8111 224.403 35.7912 224.403 38.8398C224.387 40.8685 224.774 42.8804 225.543 44.7579C226.312 46.6354 227.447 48.3411 228.881 49.7757C230.316 51.2103 232.021 52.345 233.899 53.1138C235.776 53.8827 237.788 54.2703 239.817 54.254Z" fill="#D5D5D0"/>
<path d="M109.106 231.277C106.057 231.277 103.077 232.181 100.542 233.875C98.007 235.569 96.0315 237.976 94.8649 240.793C93.6982 243.609 93.3928 246.709 93.9875 249.699C94.5823 252.689 96.0505 255.435 98.2062 257.591C100.362 259.747 103.108 261.215 106.099 261.809C109.089 262.404 112.188 262.099 115.005 260.932C117.821 259.766 120.228 257.79 121.922 255.255C123.616 252.72 124.52 249.74 124.52 246.691C124.456 242.623 122.813 238.739 119.936 235.862C117.059 232.985 113.175 231.34 109.106 231.277Z" fill="#D5D5D0"/>
<path d="M178.16 239.28C175.111 239.28 172.131 240.184 169.596 241.877C167.062 243.571 165.086 245.979 163.92 248.795C162.753 251.612 162.447 254.711 163.042 257.701C163.637 260.691 165.105 263.438 167.261 265.593C169.417 267.749 172.163 269.217 175.153 269.812C178.143 270.407 181.242 270.101 184.059 268.935C186.875 267.768 189.283 265.792 190.977 263.258C192.67 260.723 193.574 257.742 193.574 254.694C193.591 252.665 193.203 250.653 192.434 248.776C191.665 246.898 190.53 245.193 189.096 243.758C187.661 242.324 185.956 241.189 184.078 240.42C182.201 239.651 180.189 239.263 178.16 239.28Z" fill="#D5D5D0"/>
<path d="M139.93 262.1C136.881 262.1 133.901 263.004 131.366 264.697C128.831 266.391 126.856 268.799 125.689 271.615C124.522 274.432 124.217 277.531 124.812 280.521C125.407 283.511 126.875 286.257 129.03 288.413C131.186 290.569 133.933 292.037 136.923 292.632C139.913 293.226 143.012 292.921 145.828 291.755C148.645 290.588 151.052 288.612 152.746 286.077C154.44 283.543 155.344 280.562 155.344 277.514C155.281 273.445 153.636 269.561 150.759 266.684C147.882 263.807 143.998 262.163 139.93 262.1Z" fill="#D5D5D0"/>
<path d="M147.34 115.968C127.57 115.857 108.207 121.58 91.6732 132.42C75.1395 143.259 62.1703 158.735 54.389 176.91C46.6077 195.084 44.3596 215.151 47.9266 234.596C51.4936 254.042 60.717 272.004 74.4423 286.234C88.1676 300.463 105.785 310.328 125.09 314.595C144.394 318.861 164.528 317.338 182.971 310.217C201.415 303.096 217.348 290.694 228.777 274.562C240.206 258.43 246.624 239.285 247.226 219.524C247.626 206.125 245.343 192.781 240.51 180.277C235.678 167.773 228.395 156.362 219.089 146.713C209.782 137.065 198.641 129.375 186.319 124.095C173.998 118.815 160.745 116.052 147.34 115.968ZM147.34 131.382C169.13 131.3 190.103 139.666 205.855 154.722C221.606 169.778 230.91 190.352 231.812 212.123C210.831 214.631 169.544 218.24 150.399 209.676C123.913 197.443 88.742 204.11 62.2566 216.466C62.3051 193.915 71.2847 172.302 87.2305 156.356C103.176 140.411 124.79 131.431 147.34 131.382ZM147.34 300.938C127.702 300.87 108.689 294.021 93.5197 281.549C78.35 269.076 67.954 251.747 64.0912 232.492C71.9601 228.537 80.1438 225.243 88.5581 222.644C105.807 217.689 127.399 215.243 143.608 223.256C165.812 233.715 206.55 230.657 231.2 227.537C228.5 247.861 218.506 266.511 203.078 280.014C187.651 293.517 167.843 300.953 147.34 300.938Z" fill="#D5D5D0"/>
</svg>
